HIERARCHY
ROOT SpineBase
{
  OFFSET 0.000000 0.000000 0.000000
  CHANNELS 6 Xposition Yposition Zposition Zrotation Xrotation Yrotation
  JOINT SpineMid
  {
    OFFSET 0.000000 25.420744 0.000000
    CHANNELS 3 Zrotation Xrotation Yrotation
    JOINT SpineShoulder
    {
      OFFSET -0.093840 19.199673 -0.487157
      CHANNELS 3 Zrotation Xrotation Yrotation
      JOINT Neck
      {
        OFFSET 0.000224 6.459914 -0.454233
        CHANNELS 3 Zrotation Xrotation Yrotation
        JOINT Head
        {
          OFFSET 2.090342 14.501950 -1.278056
          CHANNELS 3 Zrotation Xrotation Yrotation
          End Site
          {
            OFFSET 0 0 0
          }
        }
      }
      JOINT ShoulderLeft
      {
        OFFSET -13.774926 0.091348 -6.820580
        CHANNELS 3 Zrotation Xrotation Yrotation
        JOINT ElbowLeft
        {
          OFFSET -2.377774 -19.066250 -6.311165
          CHANNELS 3 Zrotation Xrotation Yrotation
          JOINT WristLeft
          {
            OFFSET 13.306619 -12.032823 -12.910797
            CHANNELS 3 Zrotation Xrotation Yrotation
            JOINT HandLeft
            {
              OFFSET 4.129948 -5.906650 -0.536867
              CHANNELS 3 Zrotation Xrotation Yrotation
              JOINT HandTipLeft
              {
                OFFSET 7.373396 -3.058878 -0.304097
                CHANNELS 3 Zrotation Xrotation Yrotation
                End Site
                {
                  OFFSET 0 0 0
                }
              }
              JOINT ThumbLeft
              {
                OFFSET -0.146363 0.891390 -5.342985
                CHANNELS 3 Zrotation Xrotation Yrotation
                End Site
                {
                  OFFSET 0 0 0
                }
              }
            }
          }
        }
      }
      JOINT ShoulderRight
      {
        OFFSET 16.580382 -1.250219 2.802084
        CHANNELS 3 Zrotation Xrotation Yrotation
        JOINT ElbowRight
        {
          OFFSET 2.222338 -22.039171 -2.485280
          CHANNELS 3 Zrotation Xrotation Yrotation
          JOINT WristRight
          {
            OFFSET -2.305702 -12.666675 -17.758846
            CHANNELS 3 Zrotation Xrotation Yrotation
            JOINT HandRight
            {
              OFFSET -0.360559 -2.691105 -4.497361
              CHANNELS 3 Zrotation Xrotation Yrotation
              JOINT HandTipRight
              {
                OFFSET -2.131896 -2.049665 -5.823549
                CHANNELS 3 Zrotation Xrotation Yrotation
                End Site
                {
                  OFFSET 0 0 0
                }
              }
              JOINT ThumbRight
              {
                OFFSET 2.016907 -1.480622 -2.392554
                CHANNELS 3 Zrotation Xrotation Yrotation
                End Site
                {
                  OFFSET 0 0 0
                }
              }
            }
          }
        }
      }
    }
  }
  JOINT HipLeft
  {
    OFFSET -6.345822 1.721323 -5.212034
    CHANNELS 3 Zrotation Xrotation Yrotation
    JOINT KneeLeft
    {
      OFFSET -1.798452 3.187137 -30.622165
      CHANNELS 3 Zrotation Xrotation Yrotation
      JOINT AnkleLeft
      {
        OFFSET 8.224793 -31.358608 -3.772489
        CHANNELS 3 Zrotation Xrotation Yrotation
        JOINT FootLeft
        {
          OFFSET 0.558768 -3.664192 -11.148555
          CHANNELS 3 Zrotation Xrotation Yrotation
          End Site
          {
            OFFSET 0 0 0
          }
        }
      }
    }
  }
  JOINT HipRight
  {
    OFFSET 7.451175 1.510040 -0.742240
    CHANNELS 3 Zrotation Xrotation Yrotation
    JOINT KneeRight
    {
      OFFSET 20.016135 0.669471 -22.936337
      CHANNELS 3 Zrotation Xrotation Yrotation
      JOINT AnkleRight
      {
        OFFSET -7.670075 -30.677854 -8.654733
        CHANNELS 3 Zrotation Xrotation Yrotation
        JOINT FootRight
        {
          OFFSET 10.026659 -4.068263 -8.029488
          CHANNELS 3 Zrotation Xrotation Yrotation
          End Site
          {
            OFFSET 0 0 0
          }
        }
      }
    }
  }
}
MOTION
Frames: 10
Frame Time: 0.033333
-64.383395 35.003687 348.597530 -0.000000 0.000000 -17.950694 -0.000000 0.000000 17.950694 -0.000000 0.000000 0.000000 -0.000000 0.000000 0.000000 0.000000 0.000000 0.000000 -0.000000 0.000000 0.000000 -0.000000 0.000000 0.000000 -0.000000 0.000000 0.000000 -0.000000 0.000000 0.000000 0.000000 0.000000 0.000000 0.000000 0.000000 0.000000 -0.000000 0.000000 0.000000 -0.000000 0.000000 0.000000 -0.000000 0.000000 0.000000 -0.000000 0.000000 0.000000 0.000000 0.000000 0.000000 0.000000 0.000000 0.000000 -0.000000 0.000000 17.950694 -0.000000 0.000000 0.000000 -0.000000 0.000000 0.000000 0.000000 0.000000 0.000000 -0.000000 0.000000 17.950694 -0.000000 0.000000 0.000000 -0.000000 0.000000 0.000000 0.000000 0.000000 0.000000
-64.508401 35.020059 348.675640 -0.146382 -0.200852 -18.087442 0.076791 0.236373 18.087027 -0.000000 0.000000 0.000000 -0.000000 0.000000 0.000000 0.000000 0.000000 0.000000 -0.000000 0.000000 0.000000 -0.000000 0.000000 0.000000 -1.949794 -2.601769 -1.710275 3.196411 2.718250 1.489234 0.000000 0.000000 0.000000 0.000000 0.000000 0.000000 -0.000000 0.000000 0.000000 -0.040430 -1.490901 0.333624 -0.037883 -0.217687 0.033006 -1.473998 2.222067 3.501653 0.000000 0.000000 0.000000 0.000000 0.000000 0.000000 0.076791 0.236373 18.087027 -0.000000 0.000000 0.000000 1.238954 -1.764131 -4.208091 0.000000 0.000000 0.000000 0.076791 0.236373 18.087027 -0.000000 0.000000 0.000000 -7.854065 1.133468 21.383593 0.000000 0.000000 0.000000
-64.603401 35.021959 348.741869 -0.263901 -0.387705 -18.195498 0.129645 0.450722 18.194095 -0.525980 -0.886136 -0.040999 0.525408 0.886475 0.032867 0.000000 0.000000 0.000000 1.513499 1.156220 -0.345505 -0.986340 -0.275526 0.358388 -3.275286 -4.337119 -2.928247 5.166764 4.791636 2.783247 0.000000 0.000000 0.000000 0.000000 0.000000 0.000000 0.525408 0.886475 0.032867 -0.029842 -2.597497 0.530909 -0.087055 0.085748 0.024119 -2.567167 3.284196 6.213655 0.000000 0.000000 0.000000 0.000000 0.000000 0.000000 0.129645 0.450722 18.194095 -0.000000 0.000000 0.000000 2.326787 -3.301328 -8.197425 0.000000 0.000000 0.000000 0.129645 0.450722 18.194095 -0.000000 0.000000 0.000000 -19.487751 -3.248892 53.789829 0.000000 0.000000 0.000000
-64.668395 35.009388 348.796217 -0.352547 -0.560543 -18.274966 -0.143958 -0.396571 18.253076 -0.114207 -0.360288 -0.032576 0.726898 1.252849 0.043155 0.000000 0.000000 0.000000 1.997638 1.416562 -0.427745 -1.269186 -0.172844 0.439385 -3.993095 -5.329070 -3.654955 5.967308 6.235429 4.089832 0.000000 0.000000 0.000000 0.000000 0.000000 0.000000 0.726898 1.252849 0.043155 0.025753 -3.326685 0.594592 -0.152884 0.770624 0.002300 -3.212673 3.375085 7.922681 0.000000 0.000000 0.000000 0.000000 0.000000 0.000000 0.133731 0.406750 17.227310 0.094054 0.217990 1.045092 3.225559 -4.402560 -11.639915 0.000000 0.000000 0.000000 0.094662 0.544883 17.347435 0.090613 0.074294 0.925523 -26.090411 -11.376557 78.169975 0.000000 0.000000 0.000000
-64.703383 34.982346 348.838682 -0.412317 -0.719352 -18.325940 -0.186790 -0.510635 18.298479 -0.138236 -0.420780 -0.039621 0.887063 1.567011 0.050238 0.000000 0.000000 0.000000 2.305943 1.470368 -0.445561 -1.419064 0.086062 0.459259 -4.103213 -5.637918 -3.887576 5.615895 7.043471 5.505178 0.000000 0.000000 0.000000 0.000000 0.000000 0.000000 0.887063 1.567011 0.050238 0.123481 -3.682680 0.525205 -0.240248 1.776878 -0.019592 -3.386787 2.597903 8.558269 0.000000 0.000000 0.000000 0.000000 0.000000 0.000000 0.118588 0.580229 17.099906 0.112893 0.208285 1.222636 3.926034 -4.889733 -14.239126 0.000000 0.000000 0.000000 0.097914 0.716891 17.233745 0.092634 0.071371 1.089276 -28.088994 -17.079890 89.319194 0.000000 0.000000 0.000000
-64.708366 34.940832 348.869266 -0.443212 -0.864125 -18.348499 -0.227112 -0.614818 18.316697 -0.155098 -0.451141 -0.044467 1.005645 1.828444 0.054664 0.000000 0.000000 0.000000 2.441847 1.319379 -0.397589 -0.784081 1.034968 0.291715 -4.230869 -5.796241 -3.528230 4.104777 7.169242 7.012515 0.000000 0.000000 0.000000 0.000000 0.000000 0.000000 1.005645 1.828444 0.054664 0.263519 -3.666047 0.321071 -0.243484 3.667430 -0.304842 -3.214139 0.398165 8.388306 0.000000 0.000000 0.000000 0.000000 0.000000 0.000000 0.074362 0.772389 17.029947 0.125919 0.157334 1.314915 4.430287 -4.657847 -15.788311 0.000000 0.000000 0.000000 0.087406 0.883461 17.161342 0.081045 0.054767 1.183516 -28.720419 -20.609754 92.584005 0.000000 0.000000 0.000000
-64.629270 34.895143 348.855155 -0.340365 -0.928247 -18.225564 -0.282778 -0.723176 18.194608 -0.130949 -0.390879 -0.040705 0.964311 1.918594 0.051655 0.000000 0.000000 0.000000 2.464023 0.838503 -0.347461 -0.584884 1.891288 0.261890 -2.855272 -6.705849 -4.052458 -1.620140 8.063083 10.453925 0.000000 0.000000 0.000000 0.000000 0.000000 0.000000 0.964311 1.918594 0.051655 0.472220 -4.119356 0.110753 -0.372475 6.130579 -0.492882 -1.378841 -3.107524 5.270862 0.000000 0.000000 0.000000 0.000000 0.000000 0.000000 -0.051509 0.858465 17.017742 0.118738 0.099256 1.206039 2.895448 -9.586457 -13.340763 0.000000 0.000000 0.000000 -0.011757 0.946581 17.108265 0.054986 0.026544 1.115000 -27.965497 -15.786377 91.301402 0.000000 0.000000 0.000000
-64.581766 34.825815 348.868054 -0.333319 -1.035057 -18.220643 -0.319689 -0.786368 18.187906 -0.123678 -0.373410 -0.041481 0.306276 1.361141 0.111917 0.000000 0.000000 0.000000 1.276300 -0.141678 0.234193 1.055187 3.209062 -0.523634 -1.562272 -3.780095 -1.653582 -4.414390 5.165305 9.515665 0.000000 0.000000 0.000000 0.000000 0.000000 0.000000 1.004569 2.056540 0.052603 0.783776 -4.113897 -0.339055 0.930059 7.847658 -3.041045 -2.823373 -3.649715 6.419320 0.000000 0.000000 0.000000 0.000000 0.000000 0.000000 -0.126912 1.081361 17.122266 0.116335 -0.029545 1.097732 3.232123 -7.454789 -13.293882 0.000000 0.000000 0.000000 -0.031975 1.088144 17.162847 0.023619 -0.008101 1.055327 -27.058872 -13.810485 82.507100 0.000000 0.000000 0.000000
-64.398285 34.808182 348.808914 -0.079796 -1.112204 -18.559412 -0.356592 -1.044870 18.532528 -0.047914 -0.386044 -0.029094 -0.779585 1.376051 0.095983 0.000000 0.000000 0.000000 1.113238 -0.256023 0.259487 1.197483 3.683283 -0.727046 0.631907 0.636694 1.392699 -7.324754 2.029606 9.264354 0.000000 0.000000 0.000000 0.000000 0.000000 0.000000 0.796669 2.375946 0.039474 1.234482 -1.484763 -1.474137 0.660666 6.665211 -2.484558 -2.405307 -5.372010 5.710415 0.000000 0.000000 0.000000 0.000000 0.000000 0.000000 -0.278383 1.079758 18.561260 -0.000000 0.000000 0.000000 4.115917 -2.404474 -13.539314 0.000000 0.000000 0.000000 -0.336576 0.993538 17.658851 0.081596 0.064508 0.903416 -24.050414 -11.324118 58.040226 0.000000 0.000000 0.000000
-64.363186 34.682351 348.846490 -0.216902 -1.344878 -18.436990 -0.506951 -1.168972 18.399175 -0.291502 -0.349908 -0.055380 0.401255 0.878427 0.263151 0.000000 0.000000 0.000000 1.442545 -0.488996 0.429206 0.970678 4.275496 -0.264428 3.041160 7.273926 4.976432 -11.415588 -1.983907 9.451756 0.000000 0.000000 0.000000 0.000000 0.000000 0.000000 1.355883 2.645207 0.064051 1.548918 1.504347 -2.426856 -0.837568 6.128524 -0.018934 -0.732159 -9.918511 5.273682 0.000000 0.000000 0.000000 0.000000 0.000000 0.000000 -0.487954 1.813116 17.688450 0.113222 -0.528019 0.756486 4.910299 6.697396 -11.955823 0.000000 0.000000 0.000000 -0.233354 1.358805 17.605367 -0.901532 -0.143877 1.115716 -20.633222 -12.331555 29.278781 0.000000 0.000000 0.000000
